# AST/ASF file generated using VICON BodyLanguage
# -----------------------------------------------
:version 1.10
:name VICON
:units
  mass 1.0
  length 0.45
  angle deg
:documentation
   .ast/.asf automatically generated from VICON data using
   VICON BodyBuilder and BodyLanguage model FoxedUp or BRILLIANT.MOD
:root
   order TX TY TZ RX RY RZ
   axis XYZ
   position 0 0 0  
   orientation 0 0 0 
:bonedata
  begin
     id 1 
     name lhipjoint
     direction 0.643824 -0.71708 0.266994 
     length 2.52133 
     axis 0 0 0  XYZ
  end
  begin
     id 2 
     name lfemur
     direction 0.34202 -0.939693 0  
     length 7.51824  
     axis 0 0 20  XYZ
    dof rx ry rz
    limits (-160.0 20.0)
           (-70.0 70.0)
           (-60.0 70.0)
  end
  begin
     id 3 
     name ltibia
     direction 0.34202 -0.939693 0   
     length 7.3685   
     axis 0 0 20   XYZ
    dof rx
    limits (-10.0 170.0)
  end
  begin
     id 4 
     name lfoot
     direction 0.105419 -0.289636 0.951314   
     length 2.20972   
     axis -90 7.62852e-016 20   XYZ
    dof rx rz
    limits (-45.0 90.0)
           (-70.0 20.0)
  end
  begin
     id 5 
     name ltoes
     direction 1.53549e-011 -4.21833e-011 1   
     length 1.10139   
     axis -90 7.62852e-016 20   XYZ
    dof rx
    limits (-90.0 20.0)
  end
  begin
     id 6 
     name rhipjoint
     direction -0.608823 -0.743445 0.276811   
     length 2.43192  
     axis 0 0 0  XYZ 
  end
  begin
     id 7 
     name rfemur
     direction -0.34202 -0.939693 0   
     length 7.69715   
     axis 0 0 -20   XYZ
    dof rx ry rz
    limits (-160.0 20.0)
           (-70.0 70.0)
           (-70.0 60.0)
  end
  begin
     id 8 
     name rtibia
     direction -0.34202 -0.939693 0   
     length 7.44924   
     axis 0 0 -20   XYZ
    dof rx
    limits (-10.0 170.0)
 end
 begin
     id 9 
     name rfoot
     direction -0.103614 -0.284677 0.953007   
     length 2.22623  
     axis -90 -7.62852e-016 -20   XYZ
    dof rx rz
    limits (-45.0 90.0)
           (-20.0 70.0)
  end
  begin
     id 10 
     name rtoes
     direction -1.53537e-011 -4.22026e-011 1   
     length 1.11   
     axis -90 -7.62852e-016 -20   XYZ
    dof rx
    limits (-90.0 20.0)
  end
  begin
     id 11 
     name lowerback
     direction -0.0101212 0.99662 -0.0815298   
     length 2.08277   
     axis 0 0 0   XYZ
    dof rx ry rz
    limits (-20.0 45.0)
           (-30.0 30.0)
           (-30.0 30.0)
  end
  begin
     id 12 
     name upperback
     direction 0.024314 0.999591 -0.0150645   
     length 2.08524   
     axis 0 0 0   XYZ
    dof rx ry rz
    limits (-20.0 45.0)
           (-30.0 30.0)
           (-30.0 30.0)
  end
  begin
     id 13 
     name thorax
     direction 0.0285959 0.999323 0.0231357   
     length 2.09645   
     axis 0 0 0   XYZ
    dof rx ry rz
    limits (-20.0 45.0)
           (-30.0 30.0)
           (-30.0 30.0)
  end
  begin
     id 14 
     name lowerneck
     direction -0.065512 0.979301 0.191515   
     length 1.63798   
     axis 0 0 0   XYZ
    dof rx ry rz
    limits (-20.0 45.0)
           (-30.0 30.0)
           (-30.0 30.0)
  end
  begin
     id 15 
     name upperneck
     direction 0.0498479 0.98191 -0.182667   
     length 1.68731   
     axis 0 0 0   XYZ
    dof rx ry rz
    limits (-20.0 45.0)
           (-30.0 30.0)
           (-30.0 30.0)
  end
  begin
     id 16
     name head
     direction 0.0230358 0.996257 -0.0833175  
     length 1.69785  
     axis 0 0 0   XYZ
    dof rx ry rz
    limits (-20.0 45.0)
           (-30.0 30.0)
           (-30.0 30.0)
  end
  begin
     id 17 
     name lclavicle
     direction 0.967963 0.201165 -0.150269  
     length 3.63976  
     axis 0 0 0   XYZ
    dof ry rz
    limits (-20.0 10.0)
           (0.0 20.0)
  end
  begin
     id 18 
     name lhumerus
     direction 1 -4.48954e-011 -2.92837e-028   
     length 5.32462   
     axis 180 -30 -90   XYZ
    dof rx ry rz
    limits (-60.0 90.0)
           (-90.0 90.0)
           (-90.0 90.0)
  end
  begin
     id 19
     name lradius
     direction 1 -4.48958e-011 -6.39511e-027   
     length 3.48402   
     axis 180 -30 -90   XYZ
    dof rx
    limits (-10.0 170.0)
  end
  begin
     id 20
     name lwrist
     direction 1 -4.48975e-011 -1.1413e-026   
     length 1.74201   
     axis 6.88575e-015 90 90   XYZ
    dof ry
    limits (-180.0 0.0)
 end
  begin
     id 21 
     name lhand
     direction 1 -4.48899e-011 -2.28192e-026   
     length 0.572476   
     axis 1.45643e-014 90 90   XYZ
    dof rx rz
    limits (-90.0 90.0)
           (-45.0 45.0)
  end
  begin
     id 22 
     name lfingers
     direction 1 -4.49155e-011 -4.5684e-026   
     length 0.461545   
     axis 2.91283e-014 90 90   XYZ
    dof rx
    limits (0.0 90.0)
  end
  begin
     id 23
     name lthumb
     direction 0.707107 -6.34943e-011 0.707107   
     length 0.662688   
     axis -90 45 -2.25915e-014   XYZ
    dof rx rz
    limits (-45.0 45.0)
           (-45.0 45.0)
  end
  begin
     id 24 
     name rclavicle
     direction -0.964103 0.264019 -0.0282629   
     length 3.54491  
     axis 0 0 0   XYZ 
    dof ry rz
    limits (-10.0 20.0)
           (-20.0 0.0)
  end
  begin
     id 25 
     name rhumerus
     direction -1 -4.48964e-011 -2.45032e-027  
     length 5.33589   
     axis 180 30 90   XYZ
    dof rx ry rz
    limits (-90.0 60.0)
           (-90.0 90.0)
           (-90.0 90.0)
  end
  begin
     id 26 
     name rradius
     direction -1 -4.48987e-011 -1.55093e-027   
     length 3.64134   
     axis 180 30 90   XYZ
    dof rx
    limits (-10.0 170.0)
  end
  begin
     id 27 
     name rwrist
     direction -1 -4.4897e-011 -1.14128e-026   
     length 1.82067   
     axis 6.88575e-015 -90 -90   XYZ
    dof ry
    limits (-180.0 0.0)
  end
  begin
     id 28
     name rhand
     direction -1 -4.49021e-011 -2.28301e-026   
     length 0.734811   
     axis 1.45643e-014 -90 -90   XYZ
    dof rx rz
    limits (-90.0 90.0)
           (-45.0 45.0)
  end
  begin
     id 29
     name rfingers
     direction -1 -4.48862e-011 -4.56319e-026   
     length 0.592424   
     axis 2.91283e-014 -90 -90   XYZ
    dof rx
    limits (0.0 90.0)
  end
  begin
     id 30
     name rthumb
     direction -0.707107 -6.34978e-011 0.707107   
     length 0.850605   
     axis -90 -45 2.25915e-014   XYZ
    dof rx rz
    limits (-45.0 45.0)
           (-45.0 45.0)
  end
:hierarchy
  begin
    root lhipjoint rhipjoint lowerback
    lhipjoint lfemur
    lfemur ltibia
    ltibia lfoot
    lfoot ltoes
    rhipjoint rfemur
    rfemur rtibia
    rtibia rfoot
    rfoot rtoes
    lowerback upperback
    upperback thorax
    thorax lowerneck lclavicle rclavicle
    lowerneck upperneck
    upperneck head
    lclavicle lhumerus
    lhumerus lradius
    lradius lwrist
    lwrist lhand lthumb
    lhand lfingers
    rclavicle rhumerus
    rhumerus rradius
    rradius rwrist
    rwrist rhand rthumb
    rhand rfingers
  end

#!OML:ASF F:\VICON\USERDATA\INSTALL\rory3\rory3.ASF
:FULLY-SPECIFIED
:DEGREES
235
root -1.60711 17.0873 2.71581 27.3452 26.2892 -3.06855
lowerback 24.4439 2.69968 -2.14069
upperback 11.3909 3.31204 2.65058
thorax -1.29849 1.562 3.25174
lowerneck -12.6524 0.644934 -10.9636
upperneck 36.8072 6.18237 -3.73704
head 14.8959 0.812657 1.39266
rclavicle -1.19271e-015 2.24627e-014
rhumerus -8.18763 41.4628 -95.1197
rradius 56.0322
rwrist 17.6477
rhand -40.0375 10.2846
rfingers 7.12502
rthumb -13.0039 -19.2901
lclavicle -1.19271e-015 2.24627e-014
lhumerus -20.2539 -28.9326 93.2374
lradius 73.6729
lwrist -24.2184
lhand -24.8061 38.9228
lfingers 7.12502
lthumb 1.6988 68.8958
rfemur -46.9292 -19.289 27.9593
rtibia 50.5758
rfoot -27.1238 -9.81505
rtoes -6.01427
lfemur -61.6628 -2.49933 -12.2237
ltibia 34.1133
lfoot 0.672697 -14.9746
ltoes -14.9257
236
root -1.58049 17.0976 2.72878 27.4719 26.1788 -3.07294
lowerback 24.926 2.58487 -2.20045
upperback 11.4436 3.14641 2.6105
thorax -1.4583 1.48062 3.27208
lowerneck -12.4099 0.812232 -10.8472
upperneck 36.9639 6.36624 -3.74081
head 14.909 0.898759 1.39467
rclavicle 3.97569e-014 -3.02153e-014
rhumerus -7.80674 42.5652 -94.9226
rradius 56.1275
rwrist 17.2206
rhand -40.5542 10.4636
rfingers 7.12502
rthumb -13.502 -19.0787
lclavicle 3.97569e-014 -3.02153e-014
lhumerus -20.5436 -28.6177 93.1773
lradius 73.7757
lwrist -23.253
lhand -24.0892 38.4412
lfingers 7.12502
lthumb 2.39123 68.4076
rfemur -47.0936 -19.2266 27.8521
rtibia 50.7358
rfoot -26.7365 -10.0073
rtoes -7.2855
lfemur -61.6546 -2.29431 -12.4831
ltibia 34.0561
lfoot 0.6941 -15.1051
ltoes -14.7523
237
root -1.55424 17.1053 2.74241 27.691 25.994 -2.9946
lowerback 25.3621 2.45448 -2.34728
upperback 11.4641 2.9397 2.52647
thorax -1.62859 1.37783 3.30783
lowerneck -12.3568 1.00773 -10.7429
upperneck 37.2294 6.64292 -3.75751
head 15.0176 1.00767 1.41111
rclavicle -1.63003e-014 -4.39314e-014
rhumerus -7.36183 43.7209 -94.7043
rradius 56.0927
rwrist 16.9136
rhand -41.1199 10.2217
rfingers 7.12502
rthumb -14.0472 -19.2836
lclavicle -1.63003e-014 -4.39314e-014
lhumerus -20.7881 -28.1056 93.0737
lradius 73.8372
lwrist -22.2553
lhand -23.8403 38.1548
lfingers 7.12502
lthumb 2.63158 68.1183
rfemur -47.3297 -19.1277 27.6623
rtibia 50.8847
rfoot -26.3054 -10.2437
rtoes -8.80023
lfemur -61.6801 -2.0963 -12.7774
ltibia 33.9724
lfoot 0.675666 -15.2842
ltoes -14.415
238
root -1.52685 17.1097 2.75203 27.938 25.7719 -2.87005
lowerback 25.7659 2.33845 -2.50941
upperback 11.4926 2.74674 2.43797
thorax -1.77448 1.28136 3.3469
lowerneck -12.4506 1.12435 -10.8305
upperneck 37.4685 6.83016 -3.64336
head 15.14 1.06734 1.50404
rclavicle 1.59028e-014 -1.96797e-014
rhumerus -6.85096 44.6783 -94.4382
rradius 55.922
rwrist 17.0847
rhand -41.9083 9.45826
rfingers 7.12502
rthumb -14.8068 -19.9928
lclavicle 1.59028e-014 -1.96797e-014
lhumerus -20.8581 -27.524 92.881
lradius 73.8903
lwrist -21.2861
lhand -23.8292 38.1771
lfingers 7.12502
lthumb 2.64233 68.1405
rfemur -47.5489 -18.9851 27.3668
rtibia 51.0152
rfoot -26.0049 -10.2279
rtoes -9.27964
lfemur -61.7439 -1.97404 -13.0605
ltibia 33.8939
lfoot 0.667553 -15.3408
ltoes -14.159
239
root -1.49656 17.1158 2.76116 28.1431 25.5898 -2.82629
lowerback 26.0557 2.22846 -2.62172
upperback 11.5525 2.57779 2.42164
thorax -1.83374 1.19512 3.43443
lowerneck -12.5758 1.1758 -11.0926
upperneck 37.6191 6.92362 -3.42042
head 15.2191 1.0827 1.65828
rclavicle -3.18055e-014 3.95581e-014
rhumerus -6.33874 45.6354 -94.0237
rradius 55.8269
rwrist 16.964
rhand -42.7097 9.09981
rfingers 7.12502
rthumb -15.5788 -20.2928
lclavicle -3.18055e-014 3.95581e-014
lhumerus -20.8994 -26.9669 92.7182
lradius 74.193
lwrist -20.627
lhand -23.1033 38.849
lfingers 7.12502
lthumb 3.34332 68.8025
rfemur -47.74 -18.8339 27.1242
rtibia 51.13
rfoot -25.6917 -10.134
rtoes -9.60134
lfemur -61.8096 -1.90524 -13.2426
ltibia 33.835
lfoot 0.606727 -15.3159
ltoes -14.3184
